<?xml version="1.0" encoding="utf-8"?>
<!-- Generator: Adobe Illustrator 19.1.0, SVG Export Plug-In . SVG Version: 6.00 Build 0)  -->
<svg version="1.1" id="Layer_1" xmlns="http://www.w3.org/2000/svg" xmlns:xlink="http://www.w3.org/1999/xlink" x="0px" y="0px"
	 viewBox="0 0 800 200" enable-background="new 0 0 800 200" xml:space="preserve">
<g>
	<path fill="#414042" d="M219.1,121.7c0,20.6-1.6,27.4-5.9,32.3c-3.7,4.1-9.9,6-17.1,6.6l1.6,12.3c8.3,0,19.7-2.8,26.6-9.8
		c7.6-7.8,10.3-18.7,10.3-35.4v-78h-15.6V121.7z"/>
	<path fill="#414042" d="M335.8,112.3c0,8.9,0.2,16.7,0.7,23.4h-13.9l-0.9-14h-0.4c-4.1,6.9-13.1,16-28.4,16
		c-13.5,0-29.7-7.5-29.7-37.7V49.7H279v47.6c0,16.3,5,27.4,19.2,27.4c10.5,0,17.8-7.3,20.6-14.2c0.9-2.3,1.4-5.2,1.4-8V49.7h15.6
		V112.3z"/>
	<path fill="#414042" d="M365.3,77.8c0-11-0.4-19.9-0.7-28.1h14l0.7,14.7h0.4c6.4-10.5,16.5-16.7,30.6-16.7
		c20.8,0,36.4,17.6,36.4,43.7c0,30.9-18.8,46.2-39.1,46.2c-11.4,0-21.3-5-26.5-13.5h-0.4v46.7h-15.5V77.8z M380.8,100.7
		c0,2.3,0.4,4.4,0.7,6.4c2.8,10.8,12.3,18.3,23.4,18.3c16.5,0,26.1-13.5,26.1-33.2c0-17.2-9.1-32-25.6-32
		c-10.7,0-20.6,7.6-23.6,19.4c-0.5,2-1.1,4.3-1.1,6.4V100.7z"/>
	<path fill="#414042" d="M474.4,49.7l18.8,50.8c2,5.7,4.1,12.4,5.5,17.6h0.4c1.6-5.2,3.4-11.7,5.5-17.9l17.1-50.5h16.5L514.7,111
		c-11.2,29.5-18.8,44.6-29.5,53.8c-7.6,6.7-15.3,9.4-19.2,10.1l-3.9-13.1c3.9-1.2,9.1-3.7,13.7-7.6c4.3-3.4,9.6-9.4,13.1-17.4
		c0.7-1.6,1.2-2.8,1.2-3.7c0-0.9-0.4-2.1-1.1-4.1l-31.8-79.2H474.4z"/>
	<path fill="#414042" d="M579.3,25v24.7h22.4v11.9h-22.4V108c0,10.7,3,16.7,11.7,16.7c4.1,0,7.1-0.5,9.1-1.1l0.7,11.7
		c-3,1.2-7.8,2.1-13.9,2.1c-7.3,0-13.1-2.3-16.9-6.6c-4.4-4.6-6-12.3-6-22.4V61.6h-13.3V49.7H564V29.1L579.3,25z"/>
	<path fill="#414042" d="M630.4,95.6c0.4,21.1,13.9,29.8,29.5,29.8c11.2,0,17.9-2,23.8-4.4l2.7,11.2c-5.5,2.5-14.9,5.3-28.6,5.3
		c-26.5,0-42.3-17.4-42.3-43.3c0-25.9,15.3-46.4,40.3-46.4c28.1,0,35.5,24.7,35.5,40.5c0,3.2-0.4,5.7-0.5,7.3H630.4z M676.3,84.4
		c0.2-9.9-4.1-25.4-21.7-25.4c-15.8,0-22.7,14.6-24,25.4H676.3z"/>
	<path fill="#414042" d="M714.3,76.6c0-10.1-0.2-18.8-0.7-26.8h13.7l0.5,16.9h0.7c3.9-11.5,13.3-18.8,23.8-18.8c1.8,0,3,0.2,4.4,0.5
		v14.7c-1.6-0.4-3.2-0.5-5.3-0.5c-11,0-18.8,8.3-21,20.1c-0.4,2.1-0.7,4.6-0.7,7.3v45.8h-15.5V76.6z"/>
</g>
<circle fill="#6D6E71" cx="147.5" cy="34.3" r="7.1"/>
<g>
	<path fill="#F37625" d="M111.1,129.1c-21.7,0-40.7-7.8-50.5-19.4c7.5,20.7,27.3,35.5,50.5,35.5c23.3,0,43.1-14.8,50.5-35.5
		C151.7,121.3,132.8,129.1,111.1,129.1z"/>
	<path fill="#F37625" d="M111.1,54c21.7,0,40.7,7.8,50.5,19.4c-7.5-20.7-27.3-35.5-50.5-35.5c-23.3,0-43.1,14.8-50.5,35.5
		C70.4,61.8,89.3,54,111.1,54z"/>
</g>
<circle fill="#939598" cx="74.7" cy="151.7" r="8.6"/>
<circle fill="#58595B" cx="66.3" cy="44" r="5.2"/>
</svg>
