<svg width="315" height="85" viewBox="0 0 315 85" fill="none" xmlns="http://www.w3.org/2000/svg">
<g clip-path="url(#clip0_302_87)">
<path d="M93.5599 53.4125C93.5599 61.9894 92.9057 64.7897 91.1612 66.8569C89.2569 68.6167 86.7662 69.59 84.1833 69.5839L84.8375 74.6859C88.8409 74.7414 92.7217 73.2939 95.7259 70.6249C98.8514 67.37 99.9417 62.869 99.9417 55.9637V23.5332H93.5453V53.4565L93.5599 53.4125Z" fill="white"/>
<path d="M141.269 49.5047C141.269 53.1993 141.269 56.454 141.56 59.2543H135.963L135.599 53.3898H135.454C134.276 55.4395 132.577 57.1353 130.533 58.3027C128.489 59.4702 126.173 60.0668 123.824 60.0313C118.3 60.0313 111.7 56.9232 111.7 44.3733V23.4665H118.096V43.303C118.096 50.1058 120.132 54.68 125.932 54.68C127.752 54.6465 129.521 54.0722 131.018 53.0288C132.515 51.9857 133.674 50.52 134.349 48.8157C134.737 47.7498 134.934 46.6228 134.931 45.4875V23.4958H141.327V49.5047H141.269Z" fill="white"/>
<path d="M153.324 35.1603C153.324 30.586 153.179 26.8914 153.033 23.4314H158.776L159.066 29.5598H159.212C160.468 27.364 162.295 25.5561 164.496 24.3313C166.697 23.1066 169.188 22.5115 171.699 22.6104C180.189 22.6104 186.585 29.941 186.585 40.7901C186.585 53.648 178.895 59.9963 170.594 59.9963C168.464 60.0865 166.346 59.6161 164.45 58.6318C162.554 57.6473 160.944 56.1825 159.779 54.3811H159.633V73.8071H153.31V35.1017L153.324 35.1603ZM159.648 44.6901C159.665 45.5816 159.762 46.47 159.939 47.3438C160.46 49.511 161.687 51.439 163.424 52.8186C165.161 54.1985 167.308 54.95 169.519 54.9528C176.279 54.9528 180.189 49.3376 180.189 41.1421C180.189 33.9728 176.482 27.8444 169.737 27.8444C167.468 27.9084 165.286 28.7354 163.537 30.1938C161.788 31.6522 160.573 33.6583 160.084 35.8934C159.828 36.7557 159.681 37.6474 159.648 38.547V44.6755V44.6901Z" fill="white"/>
<path d="M197.901 23.4998L205.591 44.6265C206.391 46.987 207.263 49.802 207.844 51.9572H207.99C208.644 49.8167 209.371 47.075 210.243 44.4947L217.221 23.5145H223.981L214.401 49.0102C209.821 61.267 206.71 67.5565 202.349 71.3979C200.146 73.465 197.444 74.9155 194.514 75.6055L192.915 70.137C194.965 69.448 196.865 68.3679 198.511 66.9555C200.838 64.9952 202.679 62.5155 203.89 59.7128C204.149 59.2289 204.321 58.7029 204.399 58.1589C204.342 57.5725 204.194 56.9988 203.963 56.458L190.967 23.5145H197.944L197.901 23.4998Z" fill="white"/>
<path d="M240.769 13.2166V23.4794H249.913V28.4349H240.769V47.6996C240.769 52.098 242.005 54.649 245.567 54.649C246.816 54.6686 248.063 54.5206 249.274 54.2091L249.564 59.0913C247.745 59.7375 245.822 60.0358 243.895 59.971C242.616 60.05 241.336 59.847 240.144 59.376C238.951 58.905 237.875 58.1775 236.99 57.244C235.172 55.3235 234.518 52.142 234.518 47.9343V28.4349H229.067V23.4794H234.518V14.9027L240.769 13.2166Z" fill="white"/>
<path d="M261.698 42.547C261.843 51.3437 267.367 54.965 273.749 54.965C277.085 55.0707 280.405 54.4402 283.474 53.1177L284.565 57.7653C280.887 59.3232 276.923 60.0777 272.935 59.9792C262.119 59.9792 255.65 52.7365 255.65 41.9458C255.65 31.1553 261.901 22.6665 272.135 22.6665C283.605 22.6665 286.673 32.9293 286.673 39.5122C286.662 40.5273 286.589 41.5408 286.455 42.547H261.741H261.698ZM280.436 37.8994C280.509 33.765 278.764 27.3288 271.583 27.3288C265.114 27.3288 262.294 33.3838 261.785 37.8994H280.451H280.436Z" fill="white"/>
<path d="M295.974 34.6474C295.974 30.4397 295.901 26.8184 295.683 23.4903H301.28L301.498 30.513H301.789C303.388 25.7041 307.24 22.6839 311.514 22.6839C312.127 22.6749 312.738 22.7489 313.332 22.9039V29.0322C312.616 28.8748 311.884 28.801 311.151 28.8123C306.644 28.8123 303.461 32.287 302.589 37.1545C302.409 38.1563 302.311 39.1713 302.298 40.1894V59.2489H295.974V34.6474Z" fill="white"/>
<path d="M61.3893 6.74C61.4316 7.71942 61.1849 8.68945 60.6804 9.52742C60.1759 10.3654 59.4362 11.0336 58.5551 11.4475C57.6739 11.8615 56.6908 12.0025 55.7302 11.8528C54.7695 11.7032 53.8745 11.2695 53.1583 10.6067C52.4421 9.94388 51.9369 9.08172 51.7066 8.12928C51.4764 7.17685 51.5314 6.17695 51.8647 5.25607C52.1981 4.33517 52.7948 3.5347 53.5793 2.9559C54.3639 2.3771 55.301 2.04599 56.2722 2.00445C57.5733 1.94881 58.843 2.41631 59.8025 3.30425C60.762 4.19218 61.3327 5.42793 61.3893 6.74Z" fill="white"/>
<path d="M32.7411 65.0067C19.6576 65.0067 8.23125 60.2125 2.30005 53.1165C4.50903 59.4839 8.62598 65.0012 14.081 68.9049C19.5362 72.8085 26.0595 74.9055 32.7484 74.9055C39.4372 74.9055 45.9606 72.8085 51.4157 68.9049C56.8707 65.0012 60.9877 59.4839 63.1967 53.1165C57.2509 60.2125 45.8247 65.0067 32.7411 65.0067Z" fill="#F37726"/>
<path d="M32.7388 18.8487C45.8225 18.8487 57.2488 23.6429 63.18 30.7389C60.971 24.3716 56.854 18.8542 51.399 14.9505C45.9438 11.0468 39.4205 8.94986 32.7317 8.94986C26.0428 8.94986 19.5195 11.0468 14.0643 14.9505C8.60926 18.8542 4.49231 24.3716 2.28333 30.7389C8.22908 23.6576 19.6553 18.8487 32.7388 18.8487Z" fill="#F37726"/>
<path d="M14.78 78.8056C14.8336 80.0405 14.5227 81.2637 13.8867 82.3202C13.2507 83.3768 12.3181 84.2193 11.207 84.741C10.0959 85.2627 8.85633 85.4402 7.64518 85.2511C6.43401 85.0619 5.30575 84.5145 4.40321 83.6783C3.50069 82.842 2.8645 81.7545 2.57517 80.5534C2.28585 79.3523 2.35642 78.0916 2.77794 76.9309C3.19946 75.7703 3.95298 74.7619 4.94308 74.0334C5.9332 73.3049 7.11538 72.8891 8.33996 72.8386C9.97793 72.771 11.5756 73.3612 12.7828 74.4797C13.99 75.5983 14.7082 77.1539 14.78 78.8056Z" fill="#989798"/>
<path d="M3.79118 17.2438C3.07272 17.2751 2.36118 17.0907 1.74665 16.714C1.13211 16.3373 0.642213 15.7852 0.338952 15.1276C0.0356894 14.47 -0.0672997 13.7364 0.0430193 13.0197C0.153339 12.303 0.472007 11.6354 0.958688 11.1015C1.44537 10.5675 2.07818 10.1912 2.77703 10.0201C3.47588 9.84901 4.20935 9.89087 4.8846 10.1404C5.55985 10.3899 6.14653 10.8358 6.57037 11.4218C6.9942 12.0077 7.23615 12.7073 7.26558 13.4319C7.30498 14.4018 6.9613 15.3478 6.30995 16.0624C5.6586 16.7771 4.75277 17.2019 3.79118 17.2438Z" fill="white"/>
</g>
<defs>
<clipPath id="clip0_302_87">
<rect width="315" height="85" fill="white"/>
</clipPath>
</defs>
</svg>
